<?xml version="1.0" encoding="UTF-8"?>
<svg id="Layer_1" data-name="Layer 1" xmlns="http://www.w3.org/2000/svg" version="1.1" viewBox="0 0 57.46 16.08">
  <defs>
    <style>
      .cls-1 {
        fill: #fff;
        stroke-width: 0px;
      }
    </style>
  </defs>
  <path class="cls-1" d="M5.4,15.83c-1.11,0-2.07-.21-2.88-.63-.81-.42-1.43-1.03-1.87-1.84-.44-.8-.65-1.78-.65-2.93v-.74h3.25v.92c0,.64.19,1.16.57,1.56.38.39.91.59,1.58.59s1.17-.2,1.56-.59c.38-.4.57-.91.57-1.56V3.25h3.29v7.17c0,1.15-.22,2.13-.65,2.93-.44.8-1.06,1.42-1.87,1.84-.81.42-1.78.63-2.9.63ZM1.71,3.65V.78h9.12v2.87H1.71Z"/>
  <path class="cls-1" d="M18.74,15.83c-.94,0-1.76-.16-2.48-.48s-1.31-.75-1.79-1.29c-.48-.54-.84-1.15-1.08-1.83-.25-.68-.37-1.37-.37-2.08v-.4c0-.74.12-1.44.37-2.12.25-.68.61-1.28,1.08-1.82.47-.54,1.05-.96,1.76-1.28.7-.31,1.5-.47,2.4-.47,1.18,0,2.17.26,2.98.79.81.53,1.43,1.22,1.86,2.07.43.85.64,1.78.64,2.78v1.08h-9.74v-1.83h7.79l-1.04.84c0-.66-.09-1.22-.28-1.69-.19-.47-.47-.83-.83-1.07s-.83-.37-1.38-.37-1.04.13-1.43.38c-.39.25-.68.63-.88,1.11-.2.49-.3,1.09-.3,1.8,0,.66.09,1.23.28,1.72.19.49.48.87.88,1.13s.92.4,1.57.4c.59,0,1.07-.11,1.45-.34.37-.23.63-.51.76-.84h2.95c-.16.74-.48,1.39-.94,1.97-.47.58-1.06,1.02-1.77,1.35-.71.32-1.53.48-2.45.48Z"/>
  <path class="cls-1" d="M31.27,15.83c-.94,0-1.76-.16-2.48-.48s-1.31-.75-1.79-1.29c-.48-.54-.84-1.15-1.08-1.83-.25-.68-.37-1.37-.37-2.08v-.4c0-.74.12-1.44.37-2.12.25-.68.61-1.28,1.08-1.82.47-.54,1.05-.96,1.76-1.28.7-.31,1.5-.47,2.4-.47,1.18,0,2.17.26,2.98.79.81.53,1.43,1.22,1.86,2.07.43.85.64,1.78.64,2.78v1.08h-9.74v-1.83h7.79l-1.04.84c0-.66-.09-1.22-.28-1.69-.19-.47-.47-.83-.83-1.07s-.83-.37-1.38-.37-1.04.13-1.43.38c-.39.25-.68.63-.88,1.11-.2.49-.3,1.09-.3,1.8,0,.66.09,1.23.28,1.72.19.49.48.87.88,1.13s.92.4,1.57.4c.59,0,1.07-.11,1.45-.34.37-.23.63-.51.76-.84h2.95c-.16.74-.48,1.39-.94,1.97-.47.58-1.06,1.02-1.77,1.35-.71.32-1.53.48-2.45.48Z"/>
  <path class="cls-1" d="M37.43,6.79v-2.35h7.87v2.35h-7.87ZM43.76,15.58c-1.11,0-2.01-.14-2.69-.41-.68-.27-1.18-.74-1.5-1.39-.31-.65-.47-1.53-.47-2.64V1.47h2.99v9.8c0,.52.14.92.41,1.19s.67.41,1.17.41h1.63v2.71h-1.55Z"/>
  <path class="cls-1" d="M51.19,15.79c-1.27,0-2.25-.41-2.93-1.24s-1.02-2.07-1.02-3.73v-6.39h3.21v6.55c0,.59.17,1.06.5,1.41.33.35.78.52,1.35.52s1.04-.18,1.41-.54c.36-.36.54-.85.54-1.47v-6.47h3.21v11.01h-2.55v-4.64h.22c0,1.11-.14,2.04-.43,2.78s-.71,1.29-1.28,1.66c-.56.36-1.26.54-2.09.54h-.14Z"/>
</svg>